<svg xmlns="http://www.w3.org/2000/svg" viewBox="0 0 712.5 186.55"><defs><style>.cls-1{fill:#333;}.cls-2{fill:#606060;}.cls-3{fill:#353535;}</style></defs><g id="Layer_2" data-name="Layer 2"><g id="Layer_1-2" data-name="Layer 1"><path class="cls-1" d="M217.65,178.94c-1.4,0-2.12-.5-2.12-2.14v-4.89c.05-2,.05-3.86.05-5.4s0-2.4,0-2.45c0-.77-.23-1-1-1h-.18c-.86,0-1.31-.58-1.31-1.76v-2.86c0-1.23.45-1.81,1.31-1.81h.18c.72,0,1-.23,1-1v-.89a9.39,9.39,0,0,1,1.26-4.91c1-1.63,3-2.63,5.87-2.63h1.77c1.4,0,2.12.5,2.12,2.13v2.23c0,1.31-.63,2-1.9,2h-.63a1.34,1.34,0,0,0-1.53,1.54v.45c0,.55,0,1.1.85,1.1h1.31c1.27,0,1.9.68,1.9,2.08V161c0,1.4-.63,2.08-1.9,2.08h-1.12c-.73,0-1,.23-1,1v2.45c0,1.54,0,3.36,0,5.4s0,3.67,0,4.89c0,1.64-.71,2.14-2.11,2.14Z"/><path class="cls-1" d="M231.33,176.22a13.09,13.09,0,0,1-.09-16.74,10.56,10.56,0,0,1,8-3.23,10.36,10.36,0,0,1,7.77,3.23,11.42,11.42,0,0,1,3.11,8.3c0,7.21-4.2,11.52-10.88,11.52a10.82,10.82,0,0,1-7.91-3.08m7.91-13.7c-2.62,0-3.93,1.77-3.93,5.26,0,4.13,1.39,5.54,3.93,5.54s3.92-1.41,3.92-5.54c0-3.85-1.39-5.26-3.92-5.26"/><path class="cls-1" d="M255.57,178.94c-1.4,0-2.12-.5-2.12-2.14.05-3.94.09-6.93.09-9s0-5.08-.09-9c0-1.63.72-2.13,2.12-2.13h2.54a2,2,0,0,1,2.25,2c0,.22.09.32.23.32,2.31-1.54,3.75-2.31,4.38-2.31h.49a1.32,1.32,0,0,1,1.36,1.49c0,.1,0,2.54,0,4a1.61,1.61,0,0,1-1.54,1.82c-3.21.41-4.65,1.31-4.65,3.9,0,.68,0,2,0,4.08s0,3.67,0,4.89c0,1.64-.71,2.14-2.11,2.14Z"/><path class="cls-1" d="M297.16,156.62c1.4,0,2.08.55,2.08,1.59a9.32,9.32,0,0,1-.36,1.76l-5.6,20.24c-1.18,4.21-4.12,6.34-8.86,6.34a11.94,11.94,0,0,1-3.12-.41c-1.49-.35-1.76-.94-1.94-2.58a19.65,19.65,0,0,1-.19-2.95,1.15,1.15,0,0,1,1.14-1.22,17.58,17.58,0,0,0,3.48.59c1.53,0,2.3-.54,2.3-1.59a12.3,12.3,0,0,0-1-3.13c-1.44-3.57-3.26-8.47-5.38-14.78a9.07,9.07,0,0,1-.55-2.27c0-1,.69-1.59,2.09-1.59h2.79c1.82,0,2.27.45,2.76,2.14.68,2.67,1.36,5.57,2,8.75.22,1,.27,2.45.73,2.45.22,0,.45-.82.72-2.45.5-2.68,1.08-5.58,1.8-8.75.37-1.69.91-2.14,2.76-2.14Z"/><path class="cls-1" d="M303.65,176.22a13.06,13.06,0,0,1-.09-16.74,10.56,10.56,0,0,1,8-3.23,10.37,10.37,0,0,1,7.77,3.23,11.38,11.38,0,0,1,3.11,8.3c0,7.21-4.2,11.52-10.88,11.52a10.82,10.82,0,0,1-7.91-3.08m7.91-13.7c-2.62,0-3.93,1.77-3.93,5.26,0,4.13,1.39,5.54,3.93,5.54s3.92-1.41,3.92-5.54c0-3.85-1.39-5.26-3.92-5.26"/><path class="cls-1" d="M340,178.94c-1.35,0-2-.55-2.07-1.64,0-.22-.09-.32-.27-.32a7.25,7.25,0,0,1-5.38,2.05,6.08,6.08,0,0,1-5-2.13c-1.14-1.41-1.73-4-1.73-7.72V158.76c0-1.63.73-2.13,2.13-2.13h3c1.41,0,2.12.5,2.12,2.13,0,1,0,2.67,0,4.81v4.76c0,2.76.85,4.12,2.57,4.12s2.48-1.54,2.48-3.22c0-1.18,0-2.9-.05-5.21v-5.26c0-1.63.73-2.13,2.13-2.13h3c1.4,0,2.12.5,2.12,2.13,0,3.94-.08,6.93-.08,9s0,5.08.08,9c0,1.64-.72,2.14-2.12,2.14Z"/><path class="cls-1" d="M351.46,178.94c-1.4,0-2.13-.5-2.13-2.14.05-3.94.1-6.93.1-9s-.05-5.08-.1-9c0-1.63.73-2.13,2.13-2.13H354a2,2,0,0,1,2.25,2c0,.22.09.32.22.32,2.31-1.54,3.76-2.31,4.39-2.31h.49a1.32,1.32,0,0,1,1.36,1.49c0,.1,0,2.54,0,4a1.61,1.61,0,0,1-1.54,1.82c-3.21.41-4.66,1.31-4.66,3.9,0,.68,0,2,0,4.08s0,3.67,0,4.89c0,1.64-.71,2.14-2.12,2.14Z"/><path class="cls-1" d="M391.47,178.94c-1.4,0-2.13-.5-2.13-2.14.05-3.94.1-6.89.1-8.93,0-3.13-.69-4.58-2.86-4.58-1.85,0-2.75,1.17-2.75,3.5,0,1.13,0,2.8,0,5s.05,3.85.05,5c0,1.64-.72,2.14-2.12,2.14h-3c-1.39,0-2.12-.5-2.12-2.14,0-6.21.09-11,.09-14.19,0-2.9,0-7.3-.09-13.15,0-1.68.77-2.27,2.27-2.27h2.7c1.49,0,2.26.59,2.26,2.27,0,.23,0,1.63-.05,4.26s0,4.13,0,4.58c0,.22.09.32.23.32a8.52,8.52,0,0,1,5.65-2.08c4.56,0,6.86,3.07,6.86,8.2,0,.86,0,1.95,0,3.22v5.85c0,1.31,0,2.32,0,3,0,1.64-.72,2.14-2.12,2.14Z"/><path class="cls-1" d="M402.88,176.22a13.06,13.06,0,0,1-.09-16.74,10.57,10.57,0,0,1,8-3.23,10.38,10.38,0,0,1,7.78,3.23,11.42,11.42,0,0,1,3.11,8.3c0,7.21-4.2,11.52-10.89,11.52a10.81,10.81,0,0,1-7.9-3.08m7.9-13.7c-2.62,0-3.92,1.77-3.92,5.26,0,4.13,1.39,5.54,3.92,5.54s3.94-1.41,3.94-5.54c0-3.85-1.4-5.26-3.94-5.26"/><path class="cls-1" d="M451.52,178.94c-1.4,0-2.12-.5-2.12-2.14,0-3.94.09-7,.09-9.11,0-2.95-.59-4.4-2.71-4.4-1.68,0-2.39,1.73-2.39,3.4V172c0,2.32,0,3.9,0,4.85,0,1.64-.73,2.14-2.13,2.14h-2.7c-1.41,0-2.13-.5-2.13-2.14,0-3.94.08-7,.08-9.29,0-2.95-.8-4.22-2.79-4.22-1.72,0-2.58,1.17-2.58,3.58,0,4.68,0,8,.05,9.93,0,1.64-.73,2.14-2.12,2.14h-3c-1.39,0-2.12-.5-2.12-2.14,0-3.94.09-6.93.09-9s0-5.08-.09-9c0-1.63.73-2.13,2.12-2.13h2.53a1.85,1.85,0,0,1,2,1.89c.05.24.14.32.32.32a9.91,9.91,0,0,1,6.51-2.3,5.63,5.63,0,0,1,4.65,2c.14.19.27.28.41.28s.23-.09.45-.28a10.62,10.62,0,0,1,6.42-2c3.79,0,6.19,3.17,6.19,8.2,0,.86,0,1.95-.05,3.22v5.85c.05,1.31.05,2.32.05,3,0,1.64-.73,2.14-2.13,2.14Z"/><path class="cls-1" d="M480,167.65c0,1.67-.77,2.26-2.26,2.26-2.67,0-9.63-.09-9.63-.09-1.12,0-1.35.32-1.35.91s1.35,2.41,5.37,2.41a13,13,0,0,0,3.85-.6c1.31-.4,2-.63,2.17-.63a1.07,1.07,0,0,1,1,1.18,23.06,23.06,0,0,1-.28,3A2.7,2.7,0,0,1,477,178.3a16.38,16.38,0,0,1-5.83,1q-5.55,0-8.44-3.13a11.8,11.8,0,0,1-2.85-8.16,13.48,13.48,0,0,1,2.58-8.26c1.71-2.31,4.29-3.49,7.77-3.49,6,0,9.8,3.9,9.8,10.48Zm-7.5-2.05c.72,0,1.09-.22,1.09-.67,0-1.46-1-3-3.39-3h-.05a3.07,3.07,0,0,0-3.39,3c0,.45.36.67,1.08.67Z"/><path class="cls-1" d="M512,178.94c-1.18,0-1.94-.73-2.26-2.14-.18-.81-.41-2.08-.63-3.76-.32-1.27-.09-2.08-.73-2.08s-.41.77-.72,2.08c-.22,1.64-.45,2.9-.63,3.76-.32,1.46-.91,2.14-2.39,2.14h-3.75c-1.13,0-1.85-.73-2.26-2.14L493.89,160a9.35,9.35,0,0,1-.36-1.81c0-1.05.68-1.59,2.07-1.59h2.81c1.8,0,2.25.45,2.75,2.13a67.81,67.81,0,0,1,1.49,7.07l.14,1.31c.14,1.14.23,1.73.54,1.73.14,0,.22-.13.31-.42.18-.58.32-2.08.46-2.62.68-3.54,1.17-5.9,1.45-7.07.35-1.63.94-2.13,2.75-2.13h.59c1.86,0,2.39.45,2.75,2.13.5,2.08,1,5.17,1.4,7.07.18,1,.32,3.27.68,3,.46,0,.59-1.77.77-3,.46-2.58,1-4.94,1.49-7.07.41-1.68.95-2.13,2.8-2.13h2.31c1.4,0,2.07.54,2.07,1.59a9.35,9.35,0,0,1-.36,1.81l-4.7,16.77c-.49,1.59-.9,2.14-2.39,2.14Z"/><path class="cls-1" d="M532.9,150.64c0,2.4-1.22,3.62-3.71,3.62s-3.7-1.22-3.7-3.62,1.23-3.63,3.7-3.63,3.71,1.22,3.71,3.63m-5.19,28.3c-1.41,0-2.13-.5-2.13-2.14v-4.48c0-2,0-3.58,0-4.54s0-2.44,0-4.49v-4.53c0-1.63.72-2.13,2.13-2.13h3c1.4,0,2.12.5,2.12,2.13,0,1,0,2.49,0,4.53v9c0,2,0,3.53,0,4.48,0,1.64-.72,2.14-2.12,2.14Z"/><path class="cls-1" d="M549.34,176.49a2.05,2.05,0,0,1-.82,1.95,6.79,6.79,0,0,1-3.3.68c-5.28,0-7.09-2.18-7.09-7.62,0-.14,0-1.36.09-3.68s.09-3.53.09-3.76c0-.77-.22-1-.95-1H537c-1,0-1.58-.31-1.58-1.76v-2.86c0-1.45.54-1.82,1.58-1.82h.36c.73,0,.95-.22.95-1V154a2.67,2.67,0,0,1,.91-1.9l2.49-2.23a2.32,2.32,0,0,1,1.71-.72h.49c.77,0,1.18.45,1.18,1.4v5.12c0,.78.13,1,.86,1h1.49c1.26,0,1.9.69,1.9,2.1V161c0,1.41-.64,2.08-1.9,2.08H546c-.71,0-.94.23-.94,1v6.67c0,1.27.5,1.9,1.45,1.9a13.72,13.72,0,0,0,1.71-.27,1.11,1.11,0,0,1,1.09,1.22Z"/><path class="cls-1" d="M567.44,178.94c-1.4,0-2.12-.5-2.12-2.14,0-3.94.09-6.89.09-8.93,0-3.13-.68-4.58-2.85-4.58-1.85,0-2.75,1.17-2.75,3.5,0,1.13,0,2.8,0,5s0,3.85,0,5c0,1.64-.72,2.14-2.13,2.14h-3c-1.4,0-2.13-.5-2.13-2.14.05-6.21.1-11,.1-14.19,0-2.9,0-7.3-.1-13.15,0-1.68.77-2.27,2.27-2.27h2.71c1.49,0,2.26.59,2.26,2.27,0,.23,0,1.63,0,4.26s0,4.13,0,4.58c0,.22.09.32.22.32a8.52,8.52,0,0,1,5.65-2.08c4.56,0,6.87,3.07,6.87,8.2,0,.86,0,1.95,0,3.22v5.85c0,1.31,0,2.32,0,3,0,1.64-.72,2.14-2.12,2.14Z"/><path class="cls-1" d="M599.26,176.9c-.26,2-1.62,2.17-3.7,2.13-2.62,0-4.47-.55-5.51-1.68s-1.54-3.26-1.54-6.39c0-1.13,0-2.87,0-5.17s.05-4,.05-5.13c0-2.54-.05-6.3-.09-11.34,0-1.63.73-2.13,2.12-2.13h3c1.4,0,2.12.5,2.12,2.13,0,9.44-.09,16.6-.09,21.55,0,1.4.36,1.63,1.08,1.63l.81-.09c1.14,0,1.72.68,1.72,2Z"/><path class="cls-1" d="M604.41,176.22a13.06,13.06,0,0,1-.09-16.74,10.56,10.56,0,0,1,8-3.23,10.33,10.33,0,0,1,7.76,3.23,11.38,11.38,0,0,1,3.12,8.3c0,7.21-4.2,11.52-10.88,11.52a10.82,10.82,0,0,1-7.91-3.08m7.91-13.7c-2.62,0-3.94,1.77-3.94,5.26,0,4.13,1.4,5.54,3.94,5.54s3.92-1.41,3.92-5.54c0-3.85-1.4-5.26-3.92-5.26"/><path class="cls-1" d="M632,178.94c-1.13,0-1.85-.73-2.26-2.14L625.08,160a9.35,9.35,0,0,1-.36-1.81c0-1.05.68-1.59,2.08-1.59h2.8c1.8,0,2.26.45,2.76,2.13a81.76,81.76,0,0,1,1.89,8.7c.18,1.28.18,2.58.63,2.58.14,0,.23-.08.28-.31.13-.41.27-1.72.41-2.27.81-4,1.44-6.93,1.85-8.7s.89-2.13,2.76-2.13h2.34c1.4,0,2.08.54,2.08,1.59a10.23,10.23,0,0,1-.36,1.81l-4.7,16.77c-.41,1.5-.91,2.14-2.4,2.14Z"/><path class="cls-1" d="M666,167.65c0,1.67-.77,2.26-2.26,2.26-2.67,0-9.63-.09-9.63-.09-1.12,0-1.35.32-1.35.91s1.35,2.41,5.37,2.41a13,13,0,0,0,3.85-.6c1.31-.4,2-.63,2.16-.63a1.07,1.07,0,0,1,1.05,1.18,23.06,23.06,0,0,1-.28,3A2.7,2.7,0,0,1,663,178.3a16.38,16.38,0,0,1-5.83,1q-5.55,0-8.44-3.13a11.8,11.8,0,0,1-2.86-8.16,13.54,13.54,0,0,1,2.58-8.26c1.72-2.31,4.29-3.49,7.78-3.49,6,0,9.8,3.9,9.8,10.48Zm-7.5-2.05c.72,0,1.08-.22,1.08-.67,0-1.46-1-3-3.38-3h-.05a3.07,3.07,0,0,0-3.39,3c0,.45.36.67,1.08.67Z"/><polygon class="cls-2" points="61.32 42.08 86.71 42.08 105.95 99.59 122.45 42.08 146.4 42.08 118.46 131.34 94.33 131.34 73.47 70.39 52.97 131.34 28.48 131.34 0 42.08 25.4 42.08 41.9 99.41 61.32 42.08"/><polygon class="cls-2" points="448.87 42.08 413.14 79.64 449.6 131.34 420.03 131.34 396.44 97.23 386.47 107.76 386.47 131.34 362.34 131.34 362.34 0 386.47 0 386.47 75.29 417.31 42.08 448.87 42.08"/><path class="cls-2" d="M470.37,52.79q13.33-13.42,33.48-13.43t33.46,13.43q13.35,13.43,13.33,33.92t-13.33,33.93Q524,134.05,503.85,134.07t-33.48-13.43Q457,107.22,457,86.71t13.34-33.92m17.42,52.61a22.56,22.56,0,0,0,32.11,0q6.61-6.7,6.62-18.69T519.9,68a22.56,22.56,0,0,0-32.11,0q-6.62,6.7-6.62,18.68t6.62,18.69"/><path class="cls-2" d="M684.2,127.8a16.41,16.41,0,0,1,0-23.39,16,16,0,0,1,11.61-4.81,16.21,16.21,0,0,1,11.79,4.81,16.41,16.41,0,0,1,0,23.39,16.21,16.21,0,0,1-11.79,4.81,16,16,0,0,1-11.61-4.81"/><polygon class="cls-3" points="184.68 42.08 160.55 42.08 160.55 86.48 184.68 72.54 184.68 42.08"/><path class="cls-2" d="M665.54,63.49V42.08h-18V15.42H625.81V27.93c0,4.23-1.18,7.66-3.54,10.25a10.31,10.31,0,0,1-2.18,1.7c-3.24,1.66-8.35,1.66-10.51,1.57l-.46,0-.67-.06.06,0c-.37,0-.8,0-1.1,0q-18.87,0-25.4,14V42.08h-23.4v89.26h24.13V90.52q0-13.42,6.35-19.32a20.92,20.92,0,0,1,8-4.59,54.13,54.13,0,0,1,17.55-3.12h8.94V105q0,12.9,7.63,20.23t20.68,7.35q8.32,0,13.6-2.18v-20a29,29,0,0,1-7.44.72q-5.45,0-8-2.35c-1.7-1.57-2.54-4.23-2.54-8V63.49Z"/><path class="cls-2" d="M323.54,0V44.57A47.2,47.2,0,0,0,300.48,39Q280.34,39,267,52.42T253.67,86.34q0,20.5,13.33,33.93a44,44,0,0,0,16.78,10.67c.78.27,1.55.57,2.36.8.51.16,1.05.27,1.58.39.84.22,1.69.43,2.55.6a53.36,53.36,0,0,0,10.21,1q20.13,0,33.47-13.43,13-13.08,13.29-32.94l.07,0-.06-25,.06.15V0Zm-7,105a21.73,21.73,0,0,1-16,6.71,23.89,23.89,0,0,1-3.44-.32A21.49,21.49,0,0,1,284.42,105q-6.63-6.72-6.63-18.7t6.63-18.68A21.73,21.73,0,0,1,300.48,61a22.1,22.1,0,0,1,16,6.71q6.62,6.7,6.62,18.68T316.53,105"/><path class="cls-2" d="M242,103.56V42.08H217.87V94q0,8-4.53,12.79T201,111.56q-8,0-12.16-5t-4.17-13V92.15l-23.56,13.61a34.5,34.5,0,0,0,8.5,17.87q9.07,10.08,24.86,10.07a35.54,35.54,0,0,0,14.42-3,21.42,21.42,0,0,0,10.25-9,51.4,51.4,0,0,0,.72,9.61H242V103.56Z"/></g></g></svg>