<svg width="542" height="142" viewBox="0 0 542 142" fill="none" xmlns="http://www.w3.org/2000/svg">
<path d="M165.605 136.14C164.54 136.14 164.007 135.76 164.007 134.542V130.813C164.083 129.291 164.083 127.846 164.083 126.704C164.083 125.486 164.083 124.878 164.083 124.802C164.083 124.193 163.931 124.041 163.323 124.041H163.171C162.486 124.041 162.182 123.584 162.182 122.671V120.464C162.182 119.551 162.486 119.094 163.171 119.094H163.323C163.855 119.094 164.083 118.942 164.083 118.333V117.648C164.083 116.279 164.388 115.137 165.072 113.919C165.757 112.702 167.354 111.941 169.56 111.941H170.93C171.995 111.941 172.527 112.321 172.527 113.539V115.213C172.527 116.202 172.071 116.735 171.082 116.735H170.625C169.865 116.735 169.484 117.116 169.484 117.877V118.181C169.484 118.638 169.484 119.018 170.169 119.018H171.158C172.147 119.018 172.603 119.551 172.603 120.616V122.366C172.603 123.432 172.147 123.965 171.158 123.965H170.321C169.789 123.965 169.56 124.117 169.56 124.725V126.628C169.56 127.769 169.56 129.215 169.56 130.737C169.56 132.259 169.56 133.553 169.56 134.466C169.56 135.684 169.028 136.064 167.963 136.064H165.605V136.14Z" fill="white"/>
<path d="M175.95 134.086C174.429 132.488 173.592 130.357 173.592 127.694C173.592 125.106 174.353 122.976 175.874 121.378C177.396 119.779 179.45 118.942 181.96 118.942C184.318 118.942 186.296 119.779 187.893 121.378C189.491 122.976 190.252 125.106 190.252 127.694C190.252 133.173 187.057 136.445 181.96 136.445C179.526 136.445 177.548 135.684 175.95 134.086ZM181.96 123.66C179.982 123.66 178.993 125.03 178.993 127.694C178.993 130.814 180.058 131.879 181.96 131.879C183.862 131.879 184.927 130.814 184.927 127.694C185.003 124.726 183.938 123.66 181.96 123.66Z" fill="white"/>
<path d="M194.435 136.14C193.37 136.14 192.838 135.76 192.838 134.542C192.914 131.575 192.914 129.292 192.914 127.694C192.914 126.095 192.914 123.813 192.838 120.845C192.838 119.627 193.37 119.247 194.435 119.247H196.337C197.402 119.247 198.011 119.779 198.087 120.769C198.087 120.921 198.163 120.997 198.239 120.997C199.988 119.855 201.13 119.247 201.586 119.247H201.966C202.499 119.247 203.031 119.551 203.031 120.388C203.031 120.464 203.031 122.291 203.031 123.432C203.031 124.269 202.651 124.726 201.89 124.802C199.456 125.106 198.315 125.791 198.315 127.77C198.315 128.302 198.315 129.292 198.315 130.89C198.315 132.412 198.315 133.705 198.315 134.618C198.315 135.836 197.782 136.217 196.717 136.217H194.435V136.14Z" fill="white"/>
<path d="M226.081 119.17C227.146 119.17 227.678 119.551 227.678 120.388C227.678 120.616 227.602 121.073 227.374 121.758L223.114 137.13C222.201 140.326 219.995 141.924 216.344 141.924C215.583 141.924 214.746 141.848 213.985 141.619C212.844 141.315 212.616 140.935 212.54 139.641C212.464 138.956 212.388 138.271 212.388 137.358C212.388 136.825 212.768 136.445 213.225 136.445C213.377 136.445 214.746 136.901 215.887 136.901C217.028 136.901 217.637 136.521 217.637 135.684C217.637 135.379 217.409 134.618 216.876 133.325C215.811 130.585 214.366 126.856 212.768 122.062C212.464 121.225 212.388 120.616 212.388 120.312C212.388 119.551 212.92 119.094 213.985 119.094H216.115C217.485 119.094 217.865 119.399 218.245 120.692C218.778 122.747 219.31 124.954 219.767 127.389C219.919 128.15 219.995 129.215 220.299 129.215C220.451 129.215 220.604 128.607 220.832 127.389C221.212 125.334 221.669 123.127 222.201 120.692C222.505 119.399 222.886 119.094 224.331 119.094H226.081V119.17Z" fill="white"/>
<path d="M230.949 134.086C229.428 132.488 228.591 130.357 228.591 127.694C228.591 125.106 229.352 122.976 230.873 121.378C232.394 119.779 234.448 118.942 236.959 118.942C239.317 118.942 241.295 119.779 242.892 121.378C244.49 122.976 245.25 125.106 245.25 127.694C245.25 133.173 242.055 136.445 236.959 136.445C234.524 136.445 232.547 135.684 230.949 134.086ZM237.035 123.66C235.057 123.66 234.068 125.03 234.068 127.694C234.068 130.814 235.133 131.879 237.035 131.879C238.936 131.879 240.001 130.814 240.001 127.694C240.001 124.726 238.936 123.66 237.035 123.66Z" fill="white"/>
<path d="M258.639 136.14C257.574 136.14 257.117 135.76 257.041 134.923C257.041 134.771 256.965 134.695 256.813 134.695C255.748 135.76 254.379 136.217 252.705 136.217C251.032 136.217 249.738 135.684 248.902 134.618C248.065 133.553 247.608 131.575 247.608 128.759V120.845C247.608 119.627 248.141 119.247 249.206 119.247H251.488C252.553 119.247 253.085 119.627 253.085 120.845C253.085 121.606 253.085 122.899 253.085 124.497V128.15C253.085 130.281 253.77 131.27 255.063 131.27C256.433 131.27 256.965 130.129 256.965 128.835C256.965 127.922 256.965 126.628 256.889 124.878V120.845C256.889 119.627 257.421 119.247 258.486 119.247H260.769C261.834 119.247 262.366 119.627 262.366 120.845C262.366 123.813 262.29 126.095 262.29 127.694C262.29 129.292 262.29 131.575 262.366 134.542C262.366 135.76 261.834 136.14 260.769 136.14H258.639V136.14Z" fill="white"/>
<path d="M267.387 136.14C266.322 136.14 265.789 135.76 265.789 134.542C265.865 131.575 265.865 129.292 265.865 127.694C265.865 126.095 265.865 123.813 265.789 120.845C265.789 119.627 266.322 119.247 267.387 119.247H269.288C270.353 119.247 270.962 119.779 271.038 120.769C271.038 120.921 271.114 120.997 271.19 120.997C272.94 119.855 274.081 119.247 274.537 119.247H274.918C275.45 119.247 275.983 119.551 275.983 120.388C275.983 120.464 275.983 122.291 275.983 123.432C275.983 124.269 275.602 124.726 274.842 124.802C272.407 125.106 271.266 125.791 271.266 127.77C271.266 128.302 271.266 129.292 271.266 130.89C271.266 132.412 271.266 133.705 271.266 134.618C271.266 135.836 270.734 136.217 269.669 136.217H267.387V136.14Z" fill="white"/>
<path d="M297.815 136.14C296.75 136.14 296.217 135.76 296.217 134.542C296.293 131.574 296.293 129.291 296.293 127.769C296.293 125.41 295.761 124.269 294.087 124.269C292.642 124.269 292.033 125.182 292.033 126.932C292.033 127.769 292.033 129.063 292.033 130.737C292.033 132.411 292.033 133.705 292.033 134.542C292.033 135.76 291.501 136.14 290.436 136.14H288.154C287.089 136.14 286.556 135.76 286.556 134.542C286.556 129.824 286.632 126.171 286.632 123.736C286.632 121.529 286.556 118.181 286.556 113.691C286.556 112.398 287.165 111.941 288.306 111.941H290.36C291.501 111.941 292.109 112.398 292.109 113.691C292.109 113.843 292.109 114.909 292.109 116.963C292.109 118.942 292.109 120.083 292.109 120.464C292.109 120.616 292.186 120.692 292.262 120.692C293.555 119.627 295 119.094 296.522 119.094C300.021 119.094 301.77 121.453 301.77 125.334C301.77 126.019 301.77 126.856 301.77 127.769V129.976V132.259C301.77 133.249 301.77 134.01 301.77 134.542C301.77 135.76 301.238 136.14 300.173 136.14H297.815V136.14Z" fill="white"/>
<path d="M306.487 134.086C304.965 132.488 304.129 130.357 304.129 127.694C304.129 125.106 304.889 122.976 306.411 121.378C307.932 119.779 309.986 118.942 312.496 118.942C314.854 118.942 316.832 119.779 318.43 121.378C320.027 122.976 320.788 125.106 320.788 127.694C320.788 133.173 317.593 136.445 312.496 136.445C310.062 136.445 308.084 135.684 306.487 134.086ZM312.496 123.66C310.518 123.66 309.53 125.03 309.53 127.694C309.53 130.814 310.595 131.879 312.496 131.879C314.398 131.879 315.463 130.814 315.463 127.694C315.463 124.726 314.398 123.66 312.496 123.66Z" fill="white"/>
<path d="M343.457 136.14C342.392 136.14 341.859 135.76 341.859 134.542C341.859 131.575 341.935 129.215 341.935 127.617C341.935 125.411 341.479 124.269 339.882 124.269C338.588 124.269 338.056 125.563 338.056 126.856V130.89C338.056 132.64 338.056 133.858 338.056 134.618C338.056 135.836 337.523 136.217 336.458 136.217H334.404C333.34 136.217 332.807 135.836 332.807 134.618C332.807 131.651 332.883 129.292 332.883 127.541C332.883 125.258 332.275 124.345 330.753 124.345C329.46 124.345 328.775 125.258 328.775 127.085C328.775 130.661 328.775 133.173 328.775 134.618C328.775 135.836 328.243 136.217 327.178 136.217H324.896C323.831 136.217 323.298 135.836 323.298 134.618C323.298 131.651 323.374 129.368 323.374 127.77C323.374 126.172 323.298 123.889 323.298 120.921C323.298 119.703 323.831 119.323 324.896 119.323H326.797C327.71 119.323 328.243 119.779 328.319 120.769C328.395 120.921 328.395 120.997 328.547 120.997C329.992 119.855 331.59 119.247 333.492 119.247C335.013 119.247 336.23 119.779 337.067 120.769C337.143 120.921 337.295 120.997 337.371 120.997C337.447 120.997 337.523 120.921 337.676 120.769C339.045 119.779 340.642 119.247 342.544 119.247C345.435 119.247 347.26 121.682 347.26 125.487C347.26 126.172 347.26 127.009 347.26 127.922V130.129V132.412C347.26 133.401 347.26 134.162 347.26 134.695C347.26 135.912 346.728 136.293 345.663 136.293H343.457V136.14Z" fill="white"/>
<path d="M365.137 127.541C365.137 128.835 364.528 129.292 363.387 129.292C361.333 129.292 356.084 129.216 356.084 129.216C355.248 129.216 355.019 129.444 355.019 129.901C355.019 130.281 356.084 131.727 359.127 131.727C360.116 131.727 361.029 131.575 362.018 131.27C363.007 130.966 363.539 130.814 363.691 130.814C364.072 130.814 364.452 131.118 364.452 131.727C364.452 132.26 364.376 133.021 364.224 134.01C364.148 134.771 363.615 135.38 362.779 135.684C361.409 136.217 359.888 136.445 358.367 136.445C355.552 136.445 353.422 135.684 351.977 134.086C350.531 132.488 349.847 130.433 349.847 127.846C349.847 125.411 350.531 123.356 351.825 121.53C353.118 119.779 355.096 118.866 357.758 118.866C362.322 118.866 365.213 121.834 365.213 126.857V127.541H365.137ZM359.432 126.019C359.964 126.019 360.268 125.867 360.268 125.487C360.268 124.345 359.508 123.204 357.682 123.204C355.932 123.204 355.096 124.421 355.096 125.487C355.096 125.867 355.4 126.019 355.932 126.019H359.432Z" fill="white"/>
<path d="M389.479 136.14C388.566 136.14 388.034 135.608 387.73 134.542C387.578 133.934 387.425 132.944 387.273 131.651C387.045 130.661 387.197 130.053 386.741 130.053C386.36 130.053 386.437 130.661 386.208 131.651C386.056 132.868 385.904 133.857 385.752 134.542C385.524 135.684 385.067 136.14 383.926 136.14H381.036C380.199 136.14 379.59 135.608 379.286 134.542L375.711 121.758C375.558 121.073 375.406 120.616 375.406 120.388C375.406 119.627 375.939 119.17 377.004 119.17H379.134C380.503 119.17 380.883 119.475 381.264 120.768C381.644 122.138 382.024 123.889 382.405 126.171L382.481 127.161C382.557 127.998 382.633 128.454 382.861 128.454C382.937 128.454 383.013 128.378 383.089 128.15C383.242 127.693 383.318 126.552 383.47 126.171C384.002 123.508 384.383 121.682 384.535 120.768C384.839 119.551 385.219 119.17 386.665 119.17H387.121C388.566 119.17 388.947 119.475 389.251 120.768C389.631 122.367 390.012 124.726 390.316 126.171C390.468 126.932 390.544 128.683 390.849 128.454C391.229 128.454 391.305 127.085 391.457 126.171C391.837 124.193 392.142 122.443 392.598 120.768C392.902 119.475 393.283 119.17 394.728 119.17H396.478C397.543 119.17 398.075 119.551 398.075 120.388C398.075 120.616 397.999 121.073 397.771 121.758L394.196 134.542C393.815 135.76 393.511 136.14 392.37 136.14H389.479Z" fill="white"/>
<path d="M405.378 114.604C405.378 116.431 404.465 117.344 402.563 117.344C400.662 117.344 399.749 116.431 399.749 114.604C399.749 112.778 400.662 111.865 402.563 111.865C404.465 111.865 405.378 112.778 405.378 114.604ZM401.422 136.14C400.357 136.14 399.825 135.76 399.825 134.542V131.118C399.825 129.596 399.825 128.378 399.825 127.693C399.825 127.008 399.825 125.867 399.825 124.269V120.844C399.825 119.627 400.357 119.246 401.422 119.246H403.704C404.769 119.246 405.302 119.627 405.302 120.844C405.302 121.605 405.302 122.747 405.302 124.269V127.693V131.118C405.302 132.64 405.302 133.781 405.302 134.542C405.302 135.76 404.769 136.14 403.704 136.14H401.422Z" fill="white"/>
<path d="M417.853 134.314C417.853 135.075 417.625 135.531 417.245 135.76C416.636 136.14 415.8 136.292 414.735 136.292C410.703 136.292 409.334 134.618 409.334 130.509C409.334 130.433 409.334 129.444 409.41 127.693C409.41 125.943 409.486 125.03 409.486 124.802C409.486 124.193 409.334 124.041 408.801 124.041H408.497C407.736 124.041 407.28 123.812 407.28 122.671V120.464C407.28 119.322 407.66 119.094 408.497 119.094H408.801C409.334 119.094 409.486 118.942 409.486 118.333V117.039C409.486 116.507 409.714 116.05 410.17 115.594L412.072 113.919C412.452 113.539 412.909 113.387 413.365 113.387H413.746C414.354 113.387 414.659 113.767 414.659 114.452V118.333C414.659 118.942 414.735 119.094 415.343 119.094H416.484C417.473 119.094 417.93 119.627 417.93 120.692V122.442C417.93 123.508 417.473 124.041 416.484 124.041H415.343C414.811 124.041 414.659 124.193 414.659 124.802V129.9C414.659 130.889 415.039 131.346 415.724 131.346C416.256 131.346 416.865 131.118 417.017 131.118C417.245 131.118 417.853 131.27 417.853 132.031V134.314V134.314Z" fill="white"/>
<path d="M431.622 136.14C430.557 136.14 430.025 135.76 430.025 134.542C430.101 131.574 430.101 129.291 430.101 127.769C430.101 125.41 429.568 124.269 427.971 124.269C426.525 124.269 425.841 125.182 425.841 126.932C425.841 127.769 425.841 129.063 425.841 130.737C425.917 132.411 425.917 133.705 425.917 134.542C425.917 135.76 425.384 136.14 424.319 136.14H422.037C420.972 136.14 420.44 135.76 420.44 134.542C420.44 129.824 420.516 126.171 420.516 123.736C420.516 121.529 420.44 118.181 420.44 113.691C420.44 112.398 421.048 111.941 422.189 111.941H424.243C425.384 111.941 425.993 112.398 425.993 113.691C425.993 113.843 425.993 114.909 425.917 116.963C425.917 118.942 425.917 120.083 425.917 120.464C425.917 120.616 425.993 120.692 426.069 120.692C427.362 119.627 428.808 119.094 430.329 119.094C433.828 119.094 435.578 121.453 435.578 125.334C435.578 126.019 435.578 126.856 435.578 127.769V129.976V132.259C435.578 133.249 435.578 134.01 435.578 134.542C435.578 135.76 435.045 136.14 433.98 136.14H431.622V136.14Z" fill="white"/>
<path d="M455.889 134.618C455.66 136.14 454.671 136.293 453.074 136.216C451.096 136.216 449.651 135.76 448.89 134.923C448.129 134.086 447.749 132.412 447.749 130.052C447.749 129.215 447.749 127.846 447.749 126.095C447.825 124.345 447.825 123.051 447.825 122.214C447.825 120.312 447.749 117.42 447.749 113.615C447.749 112.398 448.282 112.017 449.347 112.017H451.629C452.694 112.017 453.226 112.398 453.226 113.615C453.15 120.768 453.15 126.248 453.15 129.976C453.15 131.042 453.454 131.194 453.987 131.194L454.595 131.118C455.432 131.118 455.889 131.651 455.889 132.64V134.618Z" fill="white"/>
<path d="M459.768 134.086C458.247 132.488 457.41 130.357 457.41 127.694C457.41 125.106 458.171 122.976 459.692 121.378C461.214 119.779 463.267 118.942 465.778 118.942C468.136 118.942 470.114 119.779 471.711 121.378C473.309 122.976 474.069 125.106 474.069 127.694C474.069 133.173 470.874 136.445 465.778 136.445C463.343 136.445 461.366 135.684 459.768 134.086ZM465.778 123.66C463.8 123.66 462.811 125.03 462.811 127.694C462.811 130.814 463.876 131.879 465.778 131.879C467.679 131.879 468.744 130.814 468.744 127.694C468.744 124.726 467.679 123.66 465.778 123.66Z" fill="white"/>
<path d="M480.764 136.14C479.927 136.14 479.318 135.608 479.014 134.542L475.439 121.758C475.286 121.073 475.134 120.616 475.134 120.388C475.134 119.627 475.667 119.17 476.732 119.17H478.862C480.231 119.17 480.611 119.475 480.992 120.768C481.6 122.899 482.057 125.106 482.437 127.389C482.589 128.378 482.589 129.368 482.893 129.368C482.97 129.368 483.046 129.292 483.122 129.139C483.198 128.835 483.35 127.846 483.426 127.389C484.035 124.345 484.491 122.138 484.871 120.768C485.176 119.475 485.556 119.17 487.001 119.17H488.751C489.816 119.17 490.348 119.551 490.348 120.388C490.348 120.616 490.272 121.073 490.044 121.758L486.469 134.542C486.164 135.684 485.784 136.14 484.643 136.14H480.764V136.14Z" fill="white"/>
<path d="M506.627 127.541C506.627 128.835 506.019 129.292 504.878 129.292C502.824 129.292 497.575 129.216 497.575 129.216C496.738 129.216 496.51 129.444 496.51 129.901C496.51 130.281 497.575 131.727 500.618 131.727C501.607 131.727 502.52 131.575 503.509 131.27C504.497 130.966 505.03 130.814 505.182 130.814C505.562 130.814 505.943 131.118 505.943 131.727C505.943 132.26 505.867 133.021 505.715 134.01C505.638 134.771 505.106 135.38 504.269 135.684C502.9 136.217 501.379 136.445 499.857 136.445C497.043 136.445 494.913 135.684 493.467 134.086C492.022 132.488 491.261 130.433 491.261 127.846C491.261 125.411 491.946 123.356 493.239 121.53C494.532 119.779 496.51 118.866 499.173 118.866C503.737 118.866 506.627 121.834 506.627 126.857V127.541V127.541ZM500.922 126.019C501.455 126.019 501.759 125.867 501.759 125.487C501.759 124.345 500.998 123.204 499.173 123.204H499.096C497.347 123.204 496.51 124.421 496.51 125.487C496.51 125.867 496.814 126.019 497.347 126.019H500.922Z" fill="white"/>
<path d="M46.631 32.0376H65.9528L80.6344 75.7943L93.186 32.0376H111.367L90.1431 99.9175H71.7342L55.9116 53.5735L40.3172 99.9175H21.68L0 32.0376H19.3218L31.8734 75.6421L46.631 32.0376Z" fill="white"/>
<path d="M341.479 32.0375L314.246 60.5745L342.012 99.9175H319.495L301.542 73.9678L294.011 82.0343V99.9175H275.602V0H294.011V57.3023L317.441 32.0375H341.479Z" fill="white"/>
<path d="M357.834 40.1801C364.604 33.4073 373.048 29.9829 383.318 29.9829C393.511 29.9829 402.031 33.4073 408.801 40.1801C415.571 47.029 418.919 55.6281 418.919 65.9775C418.919 76.4031 415.571 85.0022 408.801 91.775C402.031 98.5477 393.587 101.972 383.318 101.972C373.124 101.972 364.604 98.5477 357.834 91.775C351.064 84.9261 347.717 76.327 347.717 65.9775C347.641 55.552 351.064 46.9529 357.834 40.1801ZM371.07 80.208C374.417 83.6324 378.525 85.3066 383.318 85.3066C388.11 85.3066 392.142 83.6324 395.565 80.208C398.912 76.7835 400.586 72.0654 400.586 65.9775C400.586 59.8897 398.912 55.1715 395.565 51.7471C392.218 48.3227 388.11 46.6485 383.318 46.6485C378.525 46.6485 374.493 48.3227 371.07 51.7471C367.723 55.1715 366.05 59.8897 366.05 65.9775C366.05 72.0654 367.723 76.7835 371.07 80.208Z" fill="white"/>
<path d="M520.472 97.2543C517.962 94.8191 516.745 91.8512 516.745 88.3507C516.745 84.8502 517.962 81.8823 520.472 79.4472C522.982 77.012 525.873 75.7944 529.296 75.7944C532.795 75.7944 535.762 77.012 538.273 79.4472C540.783 81.8823 542 84.8502 542 88.3507C542 91.8512 540.783 94.8191 538.273 97.2543C535.762 99.6894 532.795 100.907 529.296 100.907C525.873 100.907 522.982 99.6894 520.472 97.2543Z" fill="white"/>
<path d="M140.502 32.0376H122.093V65.8254L140.502 55.1716V32.0376Z" fill="#CACACA"/>
<path d="M506.247 48.3227V32.0376H492.554V11.7192H475.971V21.2316C475.971 24.4277 475.058 27.0912 473.309 29.0697C472.852 29.6024 472.244 29.9829 471.635 30.3634C469.201 31.6571 465.321 31.6571 463.648 31.581C463.572 31.581 463.42 31.581 463.267 31.581C462.963 31.581 462.735 31.5049 462.735 31.5049H462.811C462.507 31.5049 462.202 31.5049 461.974 31.5049C452.389 31.5049 445.999 35.0815 442.652 42.1587V32.0376H424.852V99.9936H443.185V68.8693C443.185 62.0204 444.782 57.1501 448.053 54.1823C449.803 52.5842 451.857 51.4427 454.215 50.6817C457.03 49.6924 461.898 48.3227 467.603 48.3227H474.374V79.9036C474.374 86.4481 476.275 91.5467 480.155 95.2755C484.035 99.0043 489.283 100.907 495.901 100.907C500.161 100.907 503.585 100.374 506.247 99.2326V84.0129C504.954 84.3934 503.052 84.5456 500.618 84.5456C497.879 84.5456 495.825 83.9368 494.532 82.7192C493.239 81.5017 492.63 79.5231 492.63 76.6313V48.3227H506.247Z" fill="white"/>
<path d="M246.087 0V33.94C240.914 31.1243 235.133 29.6785 228.515 29.6785C218.321 29.6785 209.802 33.1029 203.031 39.8757C196.261 46.7245 192.914 55.3237 192.914 65.6731C192.914 76.0986 196.261 84.6977 203.031 91.4705C206.759 95.1994 211.019 97.9389 215.811 99.6131C216.42 99.8414 217.028 100.07 217.637 100.222C218.017 100.374 218.474 100.45 218.854 100.526C219.462 100.678 220.147 100.831 220.756 100.983C223.19 101.439 225.776 101.744 228.515 101.744C238.708 101.744 247.228 98.3194 253.998 91.5466C260.616 84.926 263.964 76.5552 264.116 66.5102H264.192L264.116 47.5616L264.192 47.6377V30.9721V22.9818V0H246.087ZM240.762 79.9035C237.415 83.328 233.307 85.0021 228.515 85.0021C227.602 85.0021 226.765 84.8499 225.928 84.7738C222.277 84.2412 219.082 82.6431 216.344 79.9035C212.997 76.4791 211.323 71.761 211.323 65.6731C211.323 59.5852 212.997 54.8671 216.344 51.4427C219.691 48.0182 223.798 46.3441 228.591 46.3441C231.101 46.3441 233.383 46.8006 235.437 47.7138C237.415 48.5509 239.165 49.7685 240.762 51.4427C244.109 54.8671 245.783 59.5852 245.783 65.6731C245.783 71.761 244.109 76.5552 240.762 79.9035Z" fill="white"/>
<path d="M184.09 78.8382V32.0376H165.757V71.5328C165.757 75.566 164.616 78.8382 162.334 81.2734C160.052 83.7085 156.933 84.9261 152.977 84.9261C148.945 84.9261 145.827 83.6324 143.697 81.1212C141.567 78.6099 140.502 75.2616 140.502 71.2284V70.163L122.549 80.5124C123.386 85.7632 125.592 90.3291 129.015 94.1341C133.579 99.2327 139.893 101.82 147.957 101.82C151.836 101.82 155.487 101.059 158.911 99.5371C162.334 98.0151 164.92 95.7321 166.67 92.6882C166.67 95.7321 166.822 98.1673 167.202 99.9936H184.09V78.8382Z" fill="white"/>
</svg>
